<svg width="14" height="20" viewBox="0 0 14 20" fill="none" xmlns="http://www.w3.org/2000/svg">
<path d="M6.95522 0.869488H3.91172C3.10453 0.869488 2.3304 1.19014 1.75964 1.76091C1.18887 2.33168 0.868214 3.1058 0.868214 3.91299C0.868214 4.72018 1.18887 5.49431 1.75964 6.06507C2.3304 6.63584 3.10453 6.9565 3.91172 6.9565M6.95522 0.869488V6.9565M6.95522 0.869488H9.99873C10.3984 0.869488 10.7942 0.94821 11.1634 1.10116C11.5327 1.25411 11.8682 1.47829 12.1508 1.76091C12.4334 2.04352 12.6576 2.37904 12.8106 2.74829C12.9635 3.11755 13.0422 3.51331 13.0422 3.91299C13.0422 4.31267 12.9635 4.70844 12.8106 5.07769C12.6576 5.44695 12.4334 5.78246 12.1508 6.06507C11.8682 6.34769 11.5327 6.57187 11.1634 6.72482C10.7942 6.87777 10.3984 6.9565 9.99873 6.9565M6.95522 6.9565H3.91172M6.95522 6.9565H9.99873M6.95522 6.9565V13.0435M3.91172 6.9565C3.10453 6.9565 2.3304 7.27715 1.75964 7.84792C1.18887 8.41869 0.868214 9.19281 0.868214 10C0.868214 10.8072 1.18887 11.5813 1.75964 12.1521C2.3304 12.7228 3.10453 13.0435 3.91172 13.0435M9.99873 6.9565C9.59905 6.9565 9.20328 7.03522 8.83403 7.18817C8.46477 7.34112 8.12926 7.5653 7.84664 7.84792C7.56403 8.13053 7.33985 8.46605 7.18689 8.8353C7.03394 9.20456 6.95522 9.60032 6.95522 10C6.95522 10.3997 7.03394 10.7954 7.18689 11.1647C7.33985 11.534 7.56403 11.8695 7.84664 12.1521C8.12926 12.4347 8.46477 12.6589 8.83403 12.8118C9.20328 12.9648 9.59905 13.0435 9.99873 13.0435C10.3984 13.0435 10.7942 12.9648 11.1634 12.8118C11.5327 12.6589 11.8682 12.4347 12.1508 12.1521C12.4334 11.8695 12.6576 11.534 12.8106 11.1647C12.9635 10.7954 13.0422 10.3997 13.0422 10C13.0422 9.60032 12.9635 9.20456 12.8106 8.8353C12.6576 8.46605 12.4334 8.13053 12.1508 7.84792C11.8682 7.5653 11.5327 7.34112 11.1634 7.18817C10.7942 7.03522 10.3984 6.9565 9.99873 6.9565ZM3.91172 13.0435C3.10453 13.0435 2.3304 13.3642 1.75964 13.9349C1.18887 14.5057 0.868214 15.2798 0.868214 16.087C0.868214 16.8942 1.18887 17.6683 1.75964 18.2391C2.3304 18.8099 3.10453 19.1305 3.91172 19.1305C4.71891 19.1305 5.49303 18.8099 6.0638 18.2391C6.63457 17.6683 6.95522 16.8942 6.95522 16.087V13.0435M3.91172 13.0435H6.95522" stroke="#7F56D9" stroke-width="1.66667" stroke-linecap="round" stroke-linejoin="round"/>
</svg>
