<svg width="21" height="17" viewBox="0 0 21 17" fill="none" xmlns="http://www.w3.org/2000/svg">
<path d="M13.6061 11.8986L10.2064 8.49891M10.2064 8.49891L6.80666 11.8986M10.2064 8.49891V16.1483M17.3373 13.93C18.1663 13.478 18.8212 12.7629 19.1986 11.8975C19.576 11.032 19.6544 10.0655 19.4215 9.15054C19.1887 8.23555 18.6577 7.42418 17.9125 6.84447C17.1672 6.26476 16.2502 5.94973 15.306 5.94911H14.2351C13.9778 4.95404 13.4983 4.03024 12.8326 3.24716C12.167 2.46408 11.3324 1.8421 10.3918 1.42798C9.4511 1.01385 8.4288 0.818362 7.40171 0.856204C6.37462 0.894047 5.36948 1.16424 4.46184 1.64646C3.5542 2.12868 2.7677 2.81039 2.16145 3.64033C1.5552 4.47027 1.14498 5.42685 0.961646 6.43815C0.778306 7.44945 0.826613 8.48916 1.10293 9.4791C1.37925 10.469 1.8764 11.3835 2.55699 12.1536" stroke="white" stroke-width="1.67" stroke-linecap="round" stroke-linejoin="round"/>
</svg>
